<?xml version="1.0" encoding="utf-8"?>
<!-- Svg Vector Icons : http://www.onlinewebfonts.com/icon -->
<!DOCTYPE svg PUBLIC "-//W3C//DTD SVG 1.1//EN" "http://www.w3.org/Graphics/SVG/1.1/DTD/svg11.dtd">
<svg version="1.1" xmlns="http://www.w3.org/2000/svg" xmlns:xlink="http://www.w3.org/1999/xlink" x="0px" y="0px" viewBox="0 0 1000 1000" enable-background="new 0 0 1000 1000" xml:space="preserve">
<metadata> Svg Vector Icons : http://www.onlinewebfonts.com/icon </metadata>
<g><g transform="translate(0.000000,511.000000) scale(0.100000,-0.100000)"><path d="M4837.3,4987.8c-203.6-77.1-320.2-181.8-409.1-369.6c-59.3-124.5-73.1-138.4-140.3-138.4c-92.9-2-100.8-17.8-73.1-170c23.7-136.4,25.7-136.4,88.9-136.4h63.3v-290.6v-292.5h-53.4c-118.6-2-336-61.3-496.1-140.3c-239.2-114.6-460.5-336-575.2-575.2c-193.7-401.2-181.8-784.7,39.5-1170.1c41.5-75.1,77.1-148.2,77.1-162.1c0-21.7-956.6-3172.3-1237.3-4073.6c-43.5-142.3-77.1-219.4-92.9-213.5c-13.8,4-73.1-35.6-132.4-88.9l-108.7-96.9l81-85l83-85l-136.4-434.8l-134.4-434.8v-409.1l-2-407.1l462.5,343.9l460.5,345.9l63.2,205.6l63.3,207.5l49.4-33.6c27.7-15.8,51.4-27.7,55.3-23.7c4,3.9,37.5,67.2,77.1,138.3l73.1,128.5l-81,45.5c-55.3,31.6-77.1,55.4-71.2,79.1c4,17.8,136.4,446.7,290.5,956.6l282.6,923h1595h1593.1l282.6-923c156.1-509.9,288.6-938.8,292.5-956.6c5.9-23.7-15.8-47.4-71.2-79.1l-81-45.5l73.1-128.5c39.5-71.1,73.2-134.4,77.1-138.3s27.7,7.9,55.4,23.7l49.4,33.6l63.2-207.5l63.2-207.5l462.5-345.9l460.5-345.9l-2,409.1v411.1l-134.4,434.8l-134.4,434.8l81.1,85l81,85l-108.7,96.9c-59.3,53.4-118.6,92.9-132.5,88.9c-13.8-4-39.5,41.5-63.2,114.6C7800-2305.5,6639.9,1517.1,6639.9,1540.8c0,15.8,35.6,88.9,77.1,164.1c221.4,387.4,233.2,774.8,37.5,1172.1c-116.6,237.2-334,454.6-571.2,571.2c-160.1,79.1-377.5,140.3-496.1,142.3h-55.3v292.5v290.6h63.2c63.2,0,65.2,0,88.9,136.4c27.7,154.2,21.7,170-87,170c-55.3,0-67.2,9.9-120.6,124.5c-77.1,166-156.2,251-302.4,330.1C5131.8,5009.5,4955.9,5031.3,4837.3,4987.8z M5193,4645.9c114.6-85,122.6-130.5,118.6-636.4l-5.9-460.5l-152.2-65.2l-154.2-67.2l-152.2,67.2l-154.2,65.2v484.2c0,458.6,2,486.2,41.5,539.6c21.7,29.6,71.2,71.2,108.7,90.9C4932.1,4711.1,5116,4701.2,5193,4645.9z M4665.3,3232.7l73.1-23.7l-87-104.8c-156.1-191.7-282.6-519.8-284.6-739.2c0-59.3-11.9-77.1-81-118.6c-140.3-85-322.2-300.4-415.1-490.2c-45.5-94.9-87-175.9-90.9-179.9c-15.8-21.7-187.8,172-241.1,274.7c-298.5,559.3-23.7,1225.4,573.2,1393.4C4234.4,3278.1,4548.7,3272.2,4665.3,3232.7z M5878.9,3244.5c600.9-158.1,881.5-830.1,581.1-1393.4c-53.4-102.8-225.3-296.5-241.2-274.7c-3.9,4-45.4,87-92.9,185.8c-69.2,140.3-120.6,209.5-247.1,338c-87,87-177.9,166-203.6,173.9c-33.6,11.9-43.5,29.6-43.5,87c-2,221.4-128.5,549.5-288.6,745.1c-47.4,59.3-81,108.7-73.1,108.7c9.9,2,61.3,13.8,114.6,29.6C5517.2,3280.1,5736.6,3280.1,5878.9,3244.5z M5084.3,2957.9c88.9-96.8,164.1-241.1,201.6-389.4c15.8-61.3,27.6-114.6,23.7-116.6c-2-2-73.1,5.9-158.1,17.8c-112.7,15.8-191.7,15.8-304.4,0c-85-11.9-156.1-19.8-158.1-17.8c-13.8,11.9,59.3,241.1,102.8,330.1c49.4,96.8,177.9,255,207.5,255C5007.2,3037,5046.8,3001.4,5084.3,2957.9z M5262.2,2137.7c27.7-11.9,33.6-27.7,23.8-67.2c-23.8-102.8-148.2-330.1-215.4-395.3l-71.2-69.2l-67.2,65.2c-98.8,96.8-256.9,415.1-223.4,450.6C4752.3,2163.4,5169.3,2175.2,5262.2,2137.7z M4489.4,1811.6c41.5-85,114.6-203.6,162.1-262.9l87-108.7l-90.9-25.7c-100.8-29.6-434.8-37.6-523.8-11.9c-49.4,13.8-55.4,21.7-43.5,69.2c27.7,116.6,130.5,304.4,219.4,399.3c51.4,53.4,96.8,98.8,104.8,98.8C4410.3,1969.7,4449.9,1898.5,4489.4,1811.6z M5699,1870.8c88.9-94.9,191.7-282.6,219.4-399.3c11.9-47.4,5.9-55.3-43.5-69.2c-88.9-25.7-423-17.8-521.8,9.9l-92.9,27.7l106.7,140.3c59.3,77.1,130.4,197.7,158.1,264.9c29.6,69.2,59.3,124.5,67.2,124.5C5600.2,1969.7,5647.6,1924.2,5699,1870.8z M3734.4,1179.1c0-37.6,13.8-126.5,27.7-197.7l27.7-128.5l-701.7-2292.8c-383.4-1261-711.5-2332.3-729.3-2381.7c-25.7-75.1-55.3-106.7-195.7-213.5l-168-122.6v71.2c0,39.5,365.7,1270.9,814.3,2735.5l812.3,2662.4l57.3-31.6C3722.5,1254.2,3734.4,1234.4,3734.4,1179.1z M7213-1424c434.8-1425.1,790.6-2624.8,790.6-2662.4v-71.2l-168,122.6l-168,124.5l-67.2,217.4c-37.6,120.5-367.6,1191.8-729.3,2381.7L6209,852.9l27.7,128.5c13.8,71.2,27.7,160.1,27.7,197.7c0,55.3,11.8,75.1,55.3,100.8c53.4,29.6,53.4,29.6,77.1-39.5C6410.6,1200.8,6776.2,3,7213-1424z M5171.3,1159.3c195.7-83,415.1-112.7,612.7-85c85,11.9,156.2,19.8,158.1,17.8c4-2-7.9-55.3-23.7-116.6c-110.7-425-476.3-705.6-919.1-705.6S4191,550.5,4080.3,971.5c-15.8,63.3-27.7,118.6-23.7,120.6c2,2,73.1-5.9,158.1-17.8c205.6-29.6,421,2,622.6,92.9c83,35.6,162.1,63.3,172,61.3C5021.1,1224.5,5094.2,1192.9,5171.3,1159.3z M4451.8,94C4944-149.2,5467.8-62.2,5871,329.2l132.4,128.5l132.5-434.8c75.1-239.2,185.8-600.9,247.1-804.5l112.6-371.6H4999.3H3501.2l114.6,371.6c61.3,203.6,172,565.3,245.1,804.5l132.4,434.8l146.3-140.3C4244.3,216.5,4335.2,151.3,4451.8,94z"/><path d="M6382.9,4165.6c-21.7-73.1-39.5-142.3-39.5-152.2c0-9.9,47.4-35.6,104.7-55.3c55.4-19.8,168-65.2,249.1-102.8c81-37.5,154.2-67.2,162.1-67.2c17.8,0,136.4,221.4,136.4,253c0,19.8-247.1,138.4-438.8,209.5l-132.4,51.4L6382.9,4165.6z"/><path d="M3349,4215c-132.4-53.4-322.2-142.3-341.9-160.1c-11.9-11.9,114.6-266.8,134.4-266.8c11.9,0,57.3,17.8,102.8,41.5c43.5,21.7,158.1,71.2,251,106.7c104.8,41.5,168,77.1,164.1,92.9c-21.7,108.7-92.9,253-120.6,253C3520.9,4280.2,3435.9,4250.6,3349,4215z"/><path d="M2360.7,3665.5c-209.5-168-385.4-320.2-385.4-336c0-9.9,45.5-67.2,102.8-126.5l102.8-108.7l79.1,77.1c87,83,294.5,251,341.9,276.7c23.7,13.8,11.9,41.5-63.3,148.2c-51.4,73.1-92.9,132.4-94.9,132.4C2441.7,3726.8,2404.2,3699.1,2360.7,3665.5z"/><path d="M7452.2,3586.4c-69.2-98.8-79.1-124.5-55.4-136.4c45.5-25.7,336-264.9,367.7-300.4c41.5-51.4,65.2-41.5,175.9,71.1l104.8,106.7l-164.1,138.4c-201.6,170-300.4,243.1-324.1,243.1C7547.1,3709,7499.6,3653.7,7452.2,3586.4z"/><path d="M1415.9,2704.9c-130.4-183.8-241.1-357.8-229.3-367.6c23.7-17.8,260.9-150.2,262.9-146.3c31.6,59.3,211.5,324.2,262.9,387.4c39.5,47.5,67.2,87,63.2,90.9c-4,2-51.4,39.5-106.7,83c-53.4,43.5-108.7,85-120.6,92.9C1534.5,2853.2,1479.2,2793.9,1415.9,2704.9z"/><path d="M8339.6,2760.3c-83-75.1-104.8-104.8-88.9-126.5c11.8-15.8,81-120.6,156.1-233.2c77.1-112.7,140.3-207.5,142.3-211.5c3.9-4,225.3,120.6,262.9,148.2c15.8,13.8-328.1,521.8-351.8,521.8C8454.3,2857.1,8398.9,2813.6,8339.6,2760.3z"/><path d="M844.7,1625.8c-49.4-134.4-134.4-407.2-134.4-432.9c0-13.8,276.7-98.8,286.6-88.9c19.8,19.8,181.8,541.6,170,553.4c-5.9,5.9-71.2,35.6-142.3,61.3l-128.5,49.4L844.7,1625.8z"/><path d="M8932.6,1702.8c-59.3-25.7-108.7-53.4-108.7-61.3c2-9.9,39.5-136.4,88.9-280.7c57.3-173.9,94.9-258.9,110.7-253c11.8,4,77.1,19.8,144.3,33.6c67.2,11.9,120.6,33.6,120.6,45.5c0,31.6-108.7,383.4-148.2,482.3C9100.6,1766.1,9086.7,1768.1,8932.6,1702.8z"/><path d="M581.8,305.4C573.9,173,572,30.7,575.9-6.8l5.9-69.2l148.2,5.9c81,4,150.2,9.9,150.2,9.9c2,2,7.9,130.5,11.9,286.6c7.9,318.2,23.7,288.6-173.9,310.3l-122.5,13.8L581.8,305.4z"/><path d="M9213.3,526.8c-57.3-7.9-106.7-19.8-110.7-21.7c-2-3.9,0-134.4,3.9-286.6l7.9-280.7L9250.8-74c75.1-7.9,144.3-7.9,156.2-2c21.7,13.8,25.7,247.1,7.9,470.4C9399.1,564.4,9414.9,556.5,9213.3,526.8z"/><path d="M773.6-688.7c-59.3-13.8-108.7-29.6-112.7-33.6c-9.9-9.9,65.2-324.1,110.7-466.4c31.6-96.9,49.4-122.5,73.1-114.6c156.2,43.5,260.9,81,260.9,90.9c0,7.9-15.8,61.3-37.5,120.6c-19.8,59.3-51.4,179.9-71.2,270.8C957.4-639.3,963.3-643.3,773.6-688.7z"/><path d="M9005.7-801.4c-17.8-79.1-49.4-203.6-71.1-276.7c-21.7-75.1-31.6-138.3-19.8-144.3c23.7-15.8,237.2-88.9,257-88.9c19.8,0,104.8,272.7,144.3,460.5c25.7,130.5,25.7,132.4-15.8,142.3c-144.3,33.6-221.4,49.4-241.1,49.4C9047.2-659.1,9023.5-724.3,9005.7-801.4z"/><path d="M1190.6-1837.1l-124.5-71.2l51.4-98.8c63.2-122.5,258.9-430.9,276.7-430.9c5.9,0,63.2,39.5,126.5,88.9l116.6,90.9l-85,132.4c-47.4,73.1-114.6,183.8-150.2,247.1c-33.6,61.3-69.2,112.7-75.1,110.7C1319.1-1767.9,1257.8-1799.5,1190.6-1837.1z"/><path d="M8584.7-1898.4c-39.5-75.1-108.7-185.8-150.3-247.1c-41.5-61.3-75.1-116.6-75.1-120.6c0-5.9,57.3-45.4,128.5-90.9l130.4-81l104.8,164c57.3,88.9,128.5,207.5,158.1,264.9l51.4,100.8l-130.4,71.2c-69.2,39.5-130.5,71.2-134.4,71.2C8661.8-1765.9,8626.2-1825.2,8584.7-1898.4z"/><path d="M3477.4-3872.9c-25.7-81.1-43.5-150.2-37.5-154.2c21.7-19.8,452.6-148.2,519.8-154.2l77.1-5.9l33.6,144.3l33.6,142.3l-81,19.8c-45.5,9.9-175.9,49.4-290.5,87l-209.5,65.2L3477.4-3872.9z"/><path d="M6382.9-3760.3c-15.8-9.9-126.5-45.4-245.1-79.1c-118.6-33.6-219.4-65.2-225.3-69.2c-3.9-5.9,4-73.1,17.8-150.2L5956-4201l77.1,11.9c67.2,11.9,496.1,142.3,529.7,162.1c7.9,3.9-9.9,69.2-37.6,146.3C6471.9-3742.5,6448.1-3722.7,6382.9-3760.3z"/><path d="M4695-4072.5c-5.9-41.5-11.9-106.7-11.9-146.3c0-65.2,5.9-73.1,61.3-85c79.1-15.8,468.4-15.8,527.7,0c47.4,13.8,53.4,49.4,31.6,213.5l-13.8,90.9h-290.5h-290.6L4695-4072.5z"/></g></g>
</svg>